<svg xmlns="http://www.w3.org/2000/svg" xmlns:xlink="http://www.w3.org/1999/xlink" viewBox="0 0 1125 2436"><defs><style>.cls-1{fill:none;}.cls-2{isolation:isolate;}.cls-3{fill:#0052ff;}.cls-14,.cls-15,.cls-3{mix-blend-mode:screen;}.cls-4{font-size:58px;font-family:MyriadPro-Regular, Myriad Pro;letter-spacing:0.31em;}.cls-16,.cls-4{fill:#fbfaf7;}.cls-5{letter-spacing:0.32em;}.cls-6{letter-spacing:0.29em;}.cls-7{letter-spacing:0.31em;}.cls-8{letter-spacing:0.32em;}.cls-9{letter-spacing:0.31em;}.cls-10{clip-path:url(#clip-path);}.cls-11{mix-blend-mode:lighten;}.cls-12{fill:#d7a026;}.cls-13{fill:#fff;}.cls-13,.cls-15{stroke:#fff;stroke-miterlimit:10;stroke-width:0.25px;}.cls-14{opacity:0.46;fill:url(#linear-gradient);}.cls-15{opacity:0.25;fill:url(#linear-gradient-2);}</style><clipPath id="clip-path"><rect class="cls-1" x="73.5" y="1157" width="955" height="988"/></clipPath><linearGradient id="linear-gradient" x1="532.65" y1="737.58" x2="573.36" y2="802.82" gradientUnits="userSpaceOnUse"><stop offset="0" stop-color="#f0f0f0"/><stop offset="1" stop-color="#fff" stop-opacity="0"/></linearGradient><linearGradient id="linear-gradient-2" x1="575.13" y1="905.13" x2="550.54" y2="953.79" gradientUnits="userSpaceOnUse"><stop offset="0" stop-color="#f0f0f0"/><stop offset="0.16" stop-color="#f4f4f4" stop-opacity="0.74"/><stop offset="0.32" stop-color="#f7f7f7" stop-opacity="0.51"/><stop offset="0.48" stop-color="#fafafa" stop-opacity="0.33"/><stop offset="0.63" stop-color="#fcfcfc" stop-opacity="0.19"/><stop offset="0.77" stop-color="#fefefe" stop-opacity="0.08"/><stop offset="0.89" stop-color="#fff" stop-opacity="0.02"/><stop offset="1" stop-color="#fff" stop-opacity="0"/></linearGradient></defs><g class="cls-2"><g id="Layer_1" data-name="Layer 1"><rect class="cls-3" x="-214.5" y="-27" width="1517" height="2484"/></g><g id="Layer_5" data-name="Layer 5"><text class="cls-4" transform="translate(205.71 2259.55)">T<tspan class="cls-5" x="46.98" y="0">he </tspan><tspan class="cls-6" x="176.2" y="0">F</tspan><tspan class="cls-5" x="220.98" y="0">utu</tspan><tspan class="cls-7" x="359.77" y="0">r</tspan><tspan class="cls-8" x="396.72" y="0">e Is N</tspan><tspan class="cls-9" x="636.72" y="0">o</tspan><tspan class="cls-8" x="686.72" y="0">w</tspan></text><g class="cls-10"><image class="cls-11" width="832" height="759" transform="translate(1165.48 2436) rotate(180) scale(1.63)" xlink:href="../Downloads/blue-futuristic-networking-technology-vector/v617batch2-bb-02-technology.png"/></g></g><g id="D_letter" data-name="D letter"><path class="cls-12" d="M645.44,847c-.12,23.94.08,45.57.39,58.45,0,2.4.11,4.5.17,6.25a72.1,72.1,0,0,1-2.75,22.64,73.86,73.86,0,0,1-6.58,15.8A51.47,51.47,0,0,1,591.86,976H511.77V729.2h77.31a57.21,57.21,0,0,1,26.49,6.42,54.08,54.08,0,0,1,8.76,5.73c8.31,6.68,16.11,16.75,19.76,31.7A82.37,82.37,0,0,1,646.23,795c-.2,7.27-.36,14.75-.48,22.26C645.59,827.25,645.49,837.32,645.44,847Z"/><path class="cls-13" d="M597.59,799.8c0-5.53-3-8.38-7.56-8.38s-7.61,2.85-7.61,8.38V920.7h-6.19V799.8c0-5.53-3-8.38-7.55-8.38s-7.62,2.85-7.62,8.38V920.7h-6.24V786.5h6.24v3.44A11.52,11.52,0,0,1,570,786c4.76,0,8.76,2,10.84,6,1.86-3.67,6.14-6,10.52-6,7.06,0,12.43,4.44,12.43,12.87V920.7h-6.19Z"/><path class="cls-14" d="M645,795c-.19,7.27-.34,14.75-.46,22.26-.15,10-.24,20.09-.29,29.78a177.26,177.26,0,0,1-36.95,13.7c-.78.2-1.55.39-2.34.57-1.93.46-3.88.89-5.83,1.3l-2.34.46q-4.76.91-9.63,1.6l-2.34.32c-1.92.25-3.87.47-5.83.66-.77.08-1.55.16-2.33.22-3.18.28-6.4.49-9.64.61l-2.33.09c-2,.05-3.92.08-5.89.08H556.5a199.84,199.84,0,0,1-38.26-4.07V729.2h72.9a51.43,51.43,0,0,1,25,6.42,50.81,50.81,0,0,1,8.26,5.73c7.84,6.68,15.19,16.75,18.64,31.7A87.53,87.53,0,0,1,645,795Z"/><path class="cls-15" d="M643.25,934.35a73.65,73.65,0,0,1-6.58,15.8A51.47,51.47,0,0,1,591.86,976H517.07V853.06a236.77,236.77,0,0,1,35.28,5v65.12h11.19V860.81q5.18,1.43,10.22,3.07v59.29h11.13V867.86q5.21,2,10.22,4.28v51h11.14v-45.6a181.07,181.07,0,0,1,39.57,27.89c.06,2.4.11,4.5.18,6.25A72.1,72.1,0,0,1,643.25,934.35Z"/></g><g id="digita_text" data-name="digita text"><path class="cls-16" d="M262.2,1053.56a26,26,0,0,0-10.78-10.6,34.33,34.33,0,0,0-16.26-3.69h-19v60.37h19a35,35,0,0,0,16.26-3.6,25.52,25.52,0,0,0,10.78-10.38,27.18,27.18,0,0,0,2.11-4.8,35,35,0,0,0,1.69-11.18A32.86,32.86,0,0,0,262.2,1053.56Zm-11.45,32.53q-5.48,6-15.59,6h-9.45v-44.83h9.45q10.11,0,15.59,6t5.47,16.46q0,8.35-3.52,13.86A18.69,18.69,0,0,1,250.75,1086.09Z"/><path class="cls-16" d="M282.14,1039.27v60.37h9.53v-60.37Z"/><path class="cls-16" d="M334.14,1066.55v7.73H356q-1,7.82-5.9,12.38t-12.66,4.56a19.66,19.66,0,0,1-10.29-2.7,18.45,18.45,0,0,1-7.06-7.68,23.23,23.23,0,0,1-2.34-7.93,29.7,29.7,0,0,1-.21-3.58,24.7,24.7,0,0,1,2.55-11.47,18.52,18.52,0,0,1,7.06-7.64,19.66,19.66,0,0,1,10.29-2.7,18.28,18.28,0,0,1,9.28,2.31,15.76,15.76,0,0,1,6.27,6.82H364.4a26.69,26.69,0,0,0-10.49-13.42,30.68,30.68,0,0,0-31.44-.79,28.89,28.89,0,0,0-10.78,11,31.75,31.75,0,0,0-4,15.9A36.75,36.75,0,0,0,308,1074a30.5,30.5,0,0,0,3.69,11.27,29,29,0,0,0,25.71,15,27.67,27.67,0,0,0,13.83-3.52,29.06,29.06,0,0,0,10.12-9.43,30.39,30.39,0,0,0,4.8-12.94v-7.73Z"/><path class="cls-16" d="M382.21,1039.27v60.37h9.53v-60.37Z"/><path class="cls-16" d="M408,1039.27V1047H423.5v52.64H433V1047H448.5v-7.73Z"/><path class="cls-16" d="M506.1,1076.59l-12.88-37.4h-11l-11.42,33.17-9.4,27.28h9.95l4.18-12.33h24.33l4.18,12.33h10Zm-28,3,2.13-6.29,7.49-22.12,8,23.95,1.5,4.46Z"/><path class="cls-16" d="M539.29,1092.09v-52.82h-9.53v60.37h29.17v-7.55Z"/><path class="cls-16" d="M646.66,1039.37l-10.85,25.27-9.47,22.07-12.22-28.36h0l-5.86-13.61-.64-1.47-1.68-3.9H595.66v60.37h9.53v-41.35L623,1099.74h6.6l14.27-33.28,3.46-8.07v41.35h9.53v-60.37Z"/><path class="cls-16" d="M728.33,1053.53a28.58,28.58,0,0,0-10.74-11,30.32,30.32,0,0,0-29.93,0,28.82,28.82,0,0,0-10.78,11,31.75,31.75,0,0,0-4,15.9c0,.71,0,1.41.05,2.11a31.43,31.43,0,0,0,3.92,13.83,28.72,28.72,0,0,0,10.78,11,30.32,30.32,0,0,0,29.93,0,28.48,28.48,0,0,0,10.74-11,30.44,30.44,0,0,0,3.13-8.3,35.65,35.65,0,0,0,.8-7.64A32,32,0,0,0,728.33,1053.53Zm-8.4,27.41a18.83,18.83,0,0,1-7.06,7.73,20.74,20.74,0,0,1-20.57,0,18.83,18.83,0,0,1-7.06-7.73,23.5,23.5,0,0,1-2.37-8.09,31.53,31.53,0,0,1-.18-3.42,24.7,24.7,0,0,1,2.55-11.47,18.52,18.52,0,0,1,7.06-7.64,20.94,20.94,0,0,1,20.57,0,18.52,18.52,0,0,1,7.06,7.64,24.7,24.7,0,0,1,2.55,11.47,27.93,27.93,0,0,1-.86,7.06A22.22,22.22,0,0,1,719.93,1080.94Z"/><path class="cls-16" d="M786.52,1039.29v45l-3.84-6-24.84-39h-9.53v60.45h9.53v-45.08l15,23.6,13.67,21.48h9.53v-60.45Z"/><path class="cls-16" d="M847.38,1047v-7.73H815.27v60.45h32.11V1092H824.81v-19h20.06v-7.65H824.81V1047Z"/><path class="cls-16" d="M898.12,1039.37l-13.38,29.45-13.37-29.45H860.75l16.43,32.73,2.88,5.75v21.89h9.53v-21.89l4.12-8.24,15.11-30.24Z"/><path class="cls-16" d="M264.31,1080.86a27.18,27.18,0,0,1-2.11,4.8A25.52,25.52,0,0,1,251.42,1096a35,35,0,0,1-16.26,3.6h-19v-2.28a72.45,72.45,0,0,1,10.21-5.27h8.77q10.11,0,15.59-6a18.69,18.69,0,0,0,1.95-2.55C256.39,1082.61,260.27,1081.72,264.31,1080.86Z"/><path class="cls-16" d="M656.86,1039.37V1069q-4.9-.87-9.53-1.81v-8.78l-3.46,8.07q-4.15-.89-8.06-1.82l10.85-25.27Z"/><path class="cls-16" d="M282.14,1077.54q4.65-.76,9.53-1.47v23.57h-9.53Z"/><path class="cls-16" d="M732.26,1069.43a35.65,35.65,0,0,1-.8,7.64c-3.32-.17-6.6-.37-9.84-.58a27.93,27.93,0,0,0,.86-7.06,24.7,24.7,0,0,0-2.55-11.47,18.52,18.52,0,0,0-7.06-7.64,20.94,20.94,0,0,0-20.57,0,18.52,18.52,0,0,0-7.06,7.64,24.7,24.7,0,0,0-2.55,11.47,31.53,31.53,0,0,0,.18,3.42c-3.36-.41-6.67-.85-9.91-1.31,0-.7-.05-1.4-.05-2.11a31.75,31.75,0,0,1,4-15.9,28.82,28.82,0,0,1,10.78-11,30.32,30.32,0,0,1,29.93,0,28.58,28.58,0,0,1,10.74,11A32,32,0,0,1,732.26,1069.43Z"/><path class="cls-16" d="M366.15,1069.69v4.59a30.39,30.39,0,0,1-4.8,12.94,29.06,29.06,0,0,1-10.12,9.43,27.67,27.67,0,0,1-13.83,3.52,29,29,0,0,1-25.71-15A30.5,30.5,0,0,1,308,1074c3.19-.37,6.42-.72,9.71-1a23.23,23.23,0,0,0,2.34,7.93,18.45,18.45,0,0,0,7.06,7.68,19.66,19.66,0,0,0,10.29,2.7q7.77,0,12.66-4.56t5.9-12.38H334.14v-2.82C344.44,1070.68,355.14,1070.08,366.15,1069.69Z"/><path class="cls-16" d="M391.74,1099.64h-9.53v-30.37q4.73-.07,9.53-.11Z"/><path class="cls-16" d="M782.68,1078.25c-1.85,0-3.71,0-5.57,0h-4.26l-15-23.6v23.4c-3.2-.07-6.38-.15-9.53-.26v-38.51h9.53Z"/><path class="cls-16" d="M786.52,1039.29h9.53v38.78q-4.74.11-9.53.15Z"/><path class="cls-16" d="M423.5,1069.54c3.21.1,6.38.21,9.53.34v29.76H423.5Z"/><path class="cls-16" d="M815.27,1039.29h32.11V1047H824.81v18.32h20.06V1073H824.81v4q-4.72.27-9.54.48Z"/><path class="cls-16" d="M514,1099.64H504l-4.18-12.33H475.5l-4.18,12.33h-9.95l9.4-27.28q4.8.44,9.45.93l-2.13,6.29h19.15l-1.5-4.46c3.53.47,7,1,10.36,1.47Z"/><path class="cls-16" d="M898.12,1039.37h10.7l-15.11,30.24q-7.94,1.34-16.53,2.49l-16.43-32.73h10.62l13.37,29.45Z"/><path class="cls-16" d="M558.93,1092.09v7.55H529.76v-18.81q4.93,1,9.53,2.15v9.11Z"/></g><g id="Wings"><path class="cls-16" d="M500.87,733.06v38.78c-3.16.13-5.32.3-7.49.3q-48.48,0-97,0h-1.7q-17.46,0-34.92,0a89.6,89.6,0,0,1-18.49-1.93c-16.66-3.56-30.09-11.87-36.51-23.24A37,37,0,0,1,301,734.71c-.66-3.85.61-4.49,6.26-4.79.82,0,1.66,0,2.49,0l67-.25,17.88-.07,96.74-.37c1.39,0,2.77,0,4.15,0,3.45-.06,5.05,1.14,5.25,3.3C500.81,732.7,500.87,732.88,500.87,733.06Z"/><path class="cls-16" d="M500.77,782.45v41.38c-3.3.16-6,.41-8.66.41-14.72,0-29.44-.1-44.15-.07q-9.36,0-18.72.14h-1c-26.8.39-54.6-11.87-59.52-34.6-.49-2.25-.07-4.59-.07-7.27Z"/><path class="cls-16" d="M500.93,873.16c-.17,5.23-1.31,6-9.41,5.49C481.2,878,471.47,876,463,872c-7.8-3.66-13.94-7.92-18.3-12.81a29.07,29.07,0,0,1-7.78-19.53,6.68,6.68,0,0,1,.39-2.15c.11-.33.55-.61,1.19-1.29H501v28.18C501,867.34,501,870.25,500.93,873.16Z"/></g><g id="HEAD"><path class="cls-16" d="M611,680.9c-3.49-9.84-5.35-8.45-15.71-8.5-2.47,0-4.94-.11-7.41,0-3,.08-5.51-.81-6.75-3.68-1.71-4-4.83-4.6-8.71-4.56-12.35.14-24.69,0-37,.06-7.5,0-7.76.2-9.4,7.33-3.13,13.62-5.14,27.35-8.1,41a60.12,60.12,0,0,0-1.21,8c9.34.83,69.44,2.15,77.07,1.16-.62-5.69-3.08-17-3.68-22.9-.67-6.49,5.74-6.09,12-8.18,4.85-1.63,6.21-.16,13,.82C614.61,689.77,611.4,682.12,611,680.9Zm-60.27.74c9.34-6.29,18.76-5.09,26.4,3.38C567.14,691.11,558,689.94,550.69,681.64Z"/></g></g></svg>